<?xml version="1.0" encoding="UTF-8" standalone="no"?>
<!-- Created with Inkscape (http://www.inkscape.org/) -->

<svg
   xmlns:dc="http://purl.org/dc/elements/1.1/"
   xmlns:cc="http://creativecommons.org/ns#"
   xmlns:rdf="http://www.w3.org/1999/02/22-rdf-syntax-ns#"
   xmlns:svg="http://www.w3.org/2000/svg"
   xmlns="http://www.w3.org/2000/svg"
   xmlns:sodipodi="http://sodipodi.sourceforge.net/DTD/sodipodi-0.dtd"
   xmlns:inkscape="http://www.inkscape.org/namespaces/inkscape"
   width="648.05542"
   height="102.5253"
   viewBox="0 0 171.46466 27.126486"
   version="1.1"
   id="svg8"
   inkscape:version="0.92.3 (2405546, 2018-03-11)"
   sodipodi:docname="turkish.svg">
  <defs
     id="defs2" />
  <sodipodi:namedview
     id="base"
     pagecolor="#00ffff"
     bordercolor="#666666"
     borderopacity="1.0"
     inkscape:pageopacity="0"
     inkscape:pageshadow="2"
     inkscape:zoom="0.35"
     inkscape:cx="576.29463"
     inkscape:cy="6.9769455"
     inkscape:document-units="px"
     inkscape:current-layer="layer1"
     showgrid="false"
     units="px"
     fit-margin-top="0.5"
     fit-margin-left="0.5"
     fit-margin-right="0.5"
     fit-margin-bottom="0.5"
     inkscape:window-width="1920"
     inkscape:window-height="1001"
     inkscape:window-x="-9"
     inkscape:window-y="-9"
     inkscape:window-maximized="1" />
  <metadata
     id="metadata5">
    <rdf:RDF>
      <cc:Work
         rdf:about="">
        <dc:format>image/svg+xml</dc:format>
        <dc:type
           rdf:resource="http://purl.org/dc/dcmitype/StillImage" />
        <dc:title></dc:title>
      </cc:Work>
    </rdf:RDF>
  </metadata>
  <g
     inkscape:label="Layer 1"
     inkscape:groupmode="layer"
     id="layer1"
     transform="translate(46.644621,-93.314725)">
    <g
       id="surface44525"
       transform="matrix(0.21415904,0,0,0.21415904,-57.032891,82.926454)">
      <path
         id="path10"
         d="M 95.28125,113.21484 C 100.53516,93.476563 94.542969,72.792969 80.210938,61.832031 60.6875,74.191406 49.429688,97.429688 53.496094,121.64063 c 1.339844,8.0039 4.242187,15.35937 8.328125,21.80468 15.265625,-4.25 28.6875,-12.29687 33.457031,-30.23047 m 26.35156,56.96094 c 32.22266,-5.41016 53.94922,-35.91797 48.53516,-68.1289 -4.50391,-26.812505 -26.36328,-46.351567 -52.14063,-49.050786 -5.20312,-0.546875 -10.57812,-0.398438 -16,0.507812 -6.425777,1.078125 -12.417965,3.167969 -17.874996,6.0625 28.398436,9.632813 43.667966,24.273438 44.726566,39.277344 0.51953,9.26172 -3.78516,15.96094 -9.44141,21.42188 l 40.15625,-2.80469 c 1.13672,-0.0781 1.49219,1.24609 0.11719,1.64062 L 63.929688,146.5625 c 9.75,13.42969 24.890625,22.36328 41.707032,24.12109 5.20312,0.54688 10.57812,0.40625 15.99609,-0.50781 M 118.39844,49.46875 c 31.54297,3.285156 56.14453,29.941406 56.15625,62.35156 0.0117,34.63281 -28.0586,62.72266 -62.69531,62.73438 C 77.222656,174.56641 49.136719,146.5 49.125,111.86328 49.113281,77.226563 77.179688,49.136719 111.81641,49.125 c 2.21875,0 4.41797,0.121094 6.58203,0.34375"
         style="fill:#ffffff;fill-opacity:1;fill-rule:nonzero;stroke:none"
         inkscape:connector-curvature="0" />
      <path
         id="path12"
         d="m 53.496094,121.64453 c 1.339844,8 4.242187,15.35547 8.328125,21.80078 15.265625,-4.25 28.6875,-12.29687 33.460937,-30.23047 C 100.53516,93.476563 94.542969,72.792969 80.207031,61.832031 60.6875,74.191406 49.429688,97.433594 53.496094,121.64453 M 170.16797,102.04297 c 5.41406,32.21484 -16.3125,62.72265 -48.53516,68.13281 -5.41797,0.91406 -10.79297,1.05469 -16,0.50781 -16.808591,-1.75781 -31.957029,-10.6914 -41.703122,-24.12109 l 95.781252,-27.46094 c 1.375,-0.39843 1.01953,-1.71875 -0.11719,-1.64062 l -40.15625,2.80469 c 5.65625,-5.46094 9.96094,-12.16016 9.44141,-21.42188 -1.0586,-15.003906 -16.32813,-29.644531 -44.726566,-39.277344 5.457031,-2.894531 11.449219,-4.984375 17.874996,-6.0625 5.42188,-0.90625 10.79688,-1.054687 16,-0.507812 25.77735,2.699219 47.63672,22.238281 52.14063,49.046876"
         style="fill:#c70a0c;fill-opacity:1;fill-rule:nonzero;stroke:none"
         inkscape:connector-curvature="0" />
      <path
         id="path14"
         d="M 499.38281,136.4375 V 115.81641 H 478.70703 V 136.4375 H 467.35937 V 87.320313 h 11.34766 v 19.566407 h 20.67578 V 87.320313 h 11.4336 V 136.4375 Z m 0,0"
         style="fill:#000000;fill-opacity:1;fill-rule:nonzero;stroke:none"
         inkscape:connector-curvature="0" />
      <path
         id="path16"
         d="m 254.79687,87.320313 v 30.749997 c 0,3.39844 0.5,6.33985 1.48829,8.73047 0.98046,2.37109 2.40234,4.34375 4.22656,5.85938 1.83984,1.53125 4.0625,2.66015 6.59765,3.35546 2.57813,0.71094 5.48829,1.07422 8.64844,1.07422 3.15625,0 6.03906,-0.36328 8.5625,-1.07422 2.48438,-0.69531 4.60156,-1.82031 6.30078,-3.33984 1.69532,-1.51562 3.02735,-3.48828 3.95703,-5.86328 0.9375,-2.38281 1.40625,-5.32422 1.40625,-8.74219 V 87.320313 h -10.61718 v 30.421877 c 0,3.09765 -0.76953,5.60156 -2.28516,7.4375 -1.55078,1.87109 -4.01562,2.82031 -7.32422,2.82031 -3.2539,0 -5.69922,-0.94531 -7.27734,-2.8125 -1.54688,-1.83203 -2.33203,-4.33594 -2.33203,-7.44531 V 87.320313 Z m 0,0"
         style="fill:#000000;fill-opacity:1;fill-rule:nonzero;stroke:none"
         inkscape:connector-curvature="0" />
      <path
         id="path18"
         d="M 222.0625,136.44531 V 96.492188 h -13.34375 v -9.171875 h 38.11719 v 4.398437 c 0,2.632813 -2.13672,4.773438 -4.76953,4.773438 h -8.65235 v 39.953122 z m 0,0"
         style="fill:#000000;fill-opacity:1;fill-rule:nonzero;stroke:none"
         inkscape:connector-curvature="0" />
      <path
         id="path20"
         d="m 404.47266,87.316406 h 11.35156 v 49.117184 h -11.35156 z m 0,0"
         style="fill:#000000;fill-opacity:1;fill-rule:nonzero;stroke:none"
         inkscape:connector-curvature="0" />
      <path
         id="path22"
         d="m 366.67187,113.53125 0.38282,0.48828 14.5,18.68359 c 1.84375,2.37891 4.6289,3.7461 7.64062,3.7461 h 9.03906 l -20.77343,-26.42188 -0.30469,-0.39062 0.30469,-0.38672 17.07812,-21.949219 h -11.8125 l -15.66015,21.171879 -0.39454,0.51172 -0.004,-0.88672 V 87.300781 h -11.35156 v 49.121089 h 11.35156 v -22.01562 z m 0,0"
         style="fill:#000000;fill-opacity:1;fill-rule:nonzero;stroke:none"
         inkscape:connector-curvature="0" />
      <path
         id="path24"
         d="m 317.82031,109.80078 h 6.61719 c 2.38281,0 4.19922,-0.65625 5.39453,-1.9414 1.18359,-1.27344 1.78516,-2.92969 1.78516,-4.91797 0,-2.03907 -0.58594,-3.714847 -1.73828,-4.988285 -1.17188,-1.296875 -3,-1.949219 -5.44141,-1.949219 h -6.61719 z m 22.69922,26.62891 c -3.36328,0 -6.53125,-1.78516 -8.26953,-4.66016 l -8.83203,-14.58203 h -5.59766 v 19.24219 H 306.47656 V 87.320313 h 20.22656 c 5.19532,0 9.26563,1.355468 12.09375,4.03125 2.82032,2.667968 4.25,6.324218 4.25,10.863277 0,2.30469 -0.61328,4.64063 -1.82421,6.94141 -1.19532,2.26172 -3.3125,4.11328 -6.30079,5.5 l -0.65625,0.30469 13.78125,21.46875 z m 0,0"
         style="fill:#000000;fill-opacity:1;fill-rule:nonzero;stroke:none"
         inkscape:connector-curvature="0" />
      <path
         id="path26"
         d="m 425.14062,134.35156 v -9.41797 c 3.61329,1.66407 8.26954,3.32422 13.08204,3.32422 5.53906,0 8.34765,-1.89843 8.34765,-5.53906 0,-4.27344 -3.76953,-4.74609 -11.3164,-7.99219 -5.13672,-2.29297 -10.03125,-5.85547 -10.03125,-14.08203 0,-9.574217 7.30468,-14.085936 17.41796,-14.085936 5.375,0 9.95313,1.265625 12.51954,2.214844 v 9.179687 c -2.56641,-1.1875 -7.14454,-2.613281 -11.71875,-2.613281 -4.97657,0 -7.30469,1.820312 -7.30469,4.984376 0,3.32422 2.8125,4.35547 7.86719,6.25391 6.5,3.24218 14.04687,4.66796 14.04687,15.74609 0,9.57422 -7.625,14.79687 -17.82031,14.79687 -6.26172,0 -11.23438,-1.10937 -15.08985,-2.76953"
         style="fill:#000000;fill-opacity:1;fill-rule:nonzero;stroke:none"
         inkscape:connector-curvature="0" />
      <path
         id="path28"
         d="M 775.75,136.43359 V 87.3125 h 30.75781 v 4.457031 c 0,2.601563 -2.11719,4.714844 -4.71484,4.714844 h -14.69141 v 10.566405 h 16.4961 V 115.25 h -16.4961 v 12.01563 h 19.40625 v 9.16796 z m 0,0"
         style="fill:#000000;fill-opacity:1;fill-rule:nonzero;stroke:none"
         inkscape:connector-curvature="0" />
      <path
         id="path30"
         d="M 663.53125,136.42969 V 87.3125 h 5.51562 c 3.21485,0 5.83204,2.617188 5.83204,5.832031 v 34.437499 h 18.11718 v 8.84766 z m 0,0"
         style="fill:#000000;fill-opacity:1;fill-rule:nonzero;stroke:none"
         inkscape:connector-curvature="0" />
      <path
         id="path32"
         d="M 593.26953,136.42187 V 87.335938 h 11.35156 l -0.004,49.085932 z m 0,0"
         style="fill:#000000;fill-opacity:1;fill-rule:nonzero;stroke:none"
         inkscape:connector-curvature="0" />
      <path
         id="path34"
         d="m 626.375,109.79297 h 6.61719 c 2.38281,0 4.19531,-0.65234 5.39453,-1.9375 1.18359,-1.27734 1.78515,-2.92969 1.78515,-4.92188 0,-2.03515 -0.58593,-3.71484 -1.74218,-4.988277 -1.16797,-1.292969 -3,-1.949219 -5.4375,-1.949219 H 626.375 Z m 22.69922,26.6289 c -3.36328,0 -6.53516,-1.78515 -8.27344,-4.65625 l -8.82812,-14.58203 H 626.375 v 19.23828 H 615.03125 V 87.316406 h 20.22266 c 5.19921,0 9.26562,1.355469 12.09765,4.03125 2.82031,2.667969 4.25,6.324219 4.25,10.863284 0,2.30469 -0.61328,4.64062 -1.82812,6.9414 -1.19141,2.25782 -3.3125,4.10938 -6.29688,5.5 l -0.65625,0.30469 13.78125,21.46484 z m 0,0"
         style="fill:#000000;fill-opacity:1;fill-rule:nonzero;stroke:none"
         inkscape:connector-curvature="0" />
      <path
         id="path36"
         d="m 554.25781,118.53516 4.45703,-12.41407 c 0.98828,-2.79296 1.98047,-5.74218 2.64063,-7.914059 h 0.16406 c 0.57813,2.249999 1.57031,5.042969 2.55859,7.914059 l 4.29297,12.41407 z m 14.02344,-31.226566 h -13.03516 l -18.52343,49.121096 h 8.17578 c 2.07812,0 3.91015,-1.32422 4.55859,-3.29297 l 1.90234,-5.76563 h 19.92188 l 2.91406,9.0586 h 12.29688 z m 0,0"
         style="fill:#000000;fill-opacity:1;fill-rule:nonzero;stroke:none"
         inkscape:connector-curvature="0" />
      <path
         id="path38"
         d="m 815.625,134.35156 v -9.41406 c 3.60937,1.66016 8.26562,3.32031 13.08203,3.32031 5.53906,0 8.34766,-1.89843 8.34766,-5.53906 0,-4.27344 -3.77344,-4.74609 -11.31641,-7.98828 -5.13672,-2.29688 -10.03516,-5.85547 -10.03516,-14.08594 0,-9.574217 7.30469,-14.085936 17.41797,-14.085936 5.37891,0 9.95313,1.265625 12.52344,2.214844 v 9.179687 C 843.07422,96.769531 838.5,95.34375 833.92578,95.34375 c -4.97656,0 -7.30469,1.820313 -7.30469,4.98438 0,3.32031 2.8086,4.35156 7.86328,6.25 6.50391,3.24218 14.04688,4.66796 14.04688,15.74609 0,9.57422 -7.625,14.79687 -17.81641,14.79687 -6.26172,0 -11.23828,-1.10937 -15.08984,-2.76953"
         style="fill:#000000;fill-opacity:1;fill-rule:nonzero;stroke:none"
         inkscape:connector-curvature="0" />
      <path
         id="path40"
         d="m 722.04297,87.320313 h 7.03515 c 3.33985,0 6.44532,1.722656 8.21094,4.558593 l 13.69922,22.007814 c 1.54688,2.44531 3.33984,5.67578 4.40234,7.96094 h 0.24219 c -0.16406,-2.20703 -0.24219,-5.28125 -0.24219,-7.48828 V 87.320313 h 9.94532 v 49.113277 h -12.44532 l -16.66015,-26.57031 c -1.55078,-2.4414 -3.17969,-5.35937 -4.32422,-7.5664 h -0.16016 c 0.082,2.1289 0.24219,4.65234 0.24219,7.01562 v 27.12109 h -9.94531 z m 0,0"
         style="fill:#000000;fill-opacity:1;fill-rule:nonzero;stroke:none"
         inkscape:connector-curvature="0" />
      <path
         id="path42"
         d="M 700.30078,136.42187 V 87.335938 h 11.34766 v 49.085932 z m 0,0"
         style="fill:#000000;fill-opacity:1;fill-rule:nonzero;stroke:none"
         inkscape:connector-curvature="0" />
    </g>
  </g>
</svg>
