<?xml version="1.0" encoding="UTF-8"?>
<svg width="1214px" height="203px" viewBox="0 0 1214 203" version="1.1" xmlns="http://www.w3.org/2000/svg" xmlns:xlink="http://www.w3.org/1999/xlink">
    <g id="Page-1" stroke="none" stroke-width="1" fill="none" fill-rule="evenodd">
        <g id="cdnlogo_vietravelairlines" transform="translate(1.000000, 0.000000)" fill-rule="nonzero">
            <path d="M1204.77,202 L0,202 L0,148.22 C0.98018889,148.810976 2.02332286,149.290617 3.11,149.65 C13.7516686,151.845831 24.6929949,152.184152 35.45,150.65 C45.87,149.22 55.37,145.46 61.62,136.65 C65.648837,130.962123 68.9605198,124.7989 71.48,118.3 C79.48,97.67 86.95,76.84 94.61,56.09 C97.61,47.93 100.61,39.77 103.77,31.09 C97.77,31.09 92.24,31.21 86.7,31.03 C84.37,30.96 83.3,31.67 82.49,33.92 C73.2433333,59.44 63.91,84.93 54.49,110.39 C52.5299211,115.811008 50.1908109,121.087372 47.49,126.18 C42.82,134.81 29.68,136.45 23.4,134.29 C28.7,107.12 34,80 39.23,52.61 L19.88,52.61 C19.6193061,53.3406787 19.3989737,54.0851351 19.22,54.84 C14.56,78.93 10,103.05 5.22,127.12 C3.89,133.79 1.78,140.32 0.03,146.91 L0.03,0 L1212.66,0 L1212.66,202 L1208.05,202 C1210.96,200.23 1211.79,197.63 1211.79,194.29 C1211.71667,131.01 1211.69667,67.73 1211.73,4.45 C1211.73,3.45 1211.62,2.37 1211.55,0.96 C1210.17,1.57 1209.19,1.96 1208.22,2.44 C1134.36667,36.8133333 1060.51667,71.1466667 986.67,105.44 C984,106.68 981.76,108.18 982.06,111.44 C982.36,114.7 984.85,116.01 987.89,116.68 C1001.02,119.59 1014.13,122.59 1027.25,125.57 L1128.34,148.47 L1143,158.7 L1204.77,202 Z M615.93,151.22 C618.68,136.95 621.3,122.81 624.15,108.71 C627.583333,91.71 631.136667,74.74 634.81,57.8 C635.3,55.51 634.56,54.74 632.59,54.47 C626.97,53.69 621.32,52.21 615.71,52.33 C607.71,52.5 599.44,52.96 591.71,54.87 C576.46,58.62 568.45,70.19 563.12,84.05 C554.16,107.383333 545.16,130.676667 536.12,153.93 C533.91,159.68 531.75,165.44 529.43,171.54 C535.43,171.54 540.87,171.41 546.33,171.6 C548.72,171.68 549.73,170.83 550.54,168.6 C555.71,154.82 561.08,141.11 566.24,127.33 C567.1,125.04 568.16,124.14 570.69,124.2 C577.81,124.39 584.94,124.27 592.06,124.27 L601.77,124.27 L596.64,151.17 L615.93,151.22 Z M860.84,121.22 L864.35,121.22 C877.6,121.22 890.85,121.14 904.09,121.29 C906.74,121.29 907.93,120.47 908.09,117.98 C908.55,112.56 909.64,107.11 909.32,101.75 C908.8,92.91 904.32,85.86 895.79,82.94 C881.68,78.11 868.01,79.35 856.37,89.5 C845.71,98.8 842.22,111.18 842.95,124.92 C843.53,135.73 848.74,143.63 858.8,147.76 C870.8,152.7 883.15,152.2 895.41,148.47 C896.374407,148.118092 897.132744,147.356091 897.48,146.39 C898.48,142.3 899.19,138.15 900.1,133.58 C899.156667,133.721282 898.224386,133.928456 897.31,134.2 C890.614307,136.72107 883.436021,137.698684 876.31,137.06 C866.2,136.36 860.14,130.29 860.84,121.23 L860.84,121.22 Z M137.59,121.43 L141.4,121.43 C154.733333,121.43 168.093333,121.43 181.48,121.43 C183.48,121.43 184.48,120.87 184.77,118.87 C185.35,114.56 186.49,110.25 186.52,105.94 C186.6,96.1 183.09,87.88 173.65,83.46 C160.65,77.37 142.27,80.57 132.07,90.72 C121.61,101.12 118.3,113.97 120.19,128.28 C121.44,137.74 126.85,144.38 135.56,147.95 C147.56,152.89 159.91,152.42 172.2,148.73 C173.088164,148.468777 173.818396,147.833475 174.2,146.99 C175.2,142.68 176.03,138.32 176.91,133.99 C176.39,133.85 176.16,133.71 175.99,133.76 C175.26,133.97 174.55,134.22 173.83,134.48 C166.641173,137.201575 158.88494,138.078277 151.27,137.03 C142.2,135.72 137,129.95 137.59,121.39 L137.59,121.43 Z M431.59,121.43 L435.34,121.43 C448.673333,121.43 462.033333,121.43 475.42,121.43 C477.57,121.43 478.61,120.85 478.9,118.67 C479.36,115.32 480.25,112.03 480.56,108.67 C481.68,96.31 476.19,86.24 466.04,82.78 C455.89,79.32 445.44,79.36 435.69,84.22 C419.53,92.22 413.63,106.38 413.81,123.57 C413.94,136.22 420.56,145.2 432.58,149.06 C443.75,152.64 455,152.15 466.17,148.79 C466.93,148.56 468.05,148.03 468.17,147.45 C469.22,142.96 470.08,138.45 471.09,133.39 L467.7,134.57 C460.494227,137.252357 452.731503,138.087761 445.12,137 C436.24,135.67 431.2,130 431.56,121.4 L431.59,121.43 Z M326,110.21 C324.56,109.88 323.1,109.48 321.62,109.21 C311.45,107.38 301.52,108.11 292.14,112.64 C283.24,116.94 279.42,124.64 280.72,134.8 C281.78,143.08 286.92,148.13 296.67,150.2 C309.99,153.03 323.01,151.12 335.84,147.3 C336.84,147.01 337.84,145.43 337.99,144.3 C338.57,141.09 338.58,137.78 339.11,134.56 C340.74,124.66 342.85,114.83 344.11,104.89 C345.7,92.74 339.85,84.55 327.88,81.8 C317.455599,79.5198803 306.62071,79.9502461 296.41,83.05 C295.76,83.24 294.77,83.69 294.66,84.18 C293.66,88.57 292.82,92.99 291.82,97.97 C293.69,97.42 294.82,97.12 295.96,96.74 C302.608535,94.4675889 309.672663,93.6724479 316.66,94.41 C325.47,95.35 329.28,101.68 326,110.21 Z M810.05,151.21 C815.62,151.21 820.75,151.28 825.89,151.13 C826.81065,150.91146 827.561163,150.247256 827.89,149.36 C830.56,135.65 833.47,121.98 835.57,108.19 C837.79,93.66 831.03,85.06 816.46,82.52 C805.54,80.61 794.87,82.21 784.26,84.66 C777.26,86.28 777.26,86.34 776.64,93.42 C776.566608,94.1821122 776.453117,94.9398289 776.3,95.69 C773.9,108.356667 771.5,121 769.1,133.62 C768.01,139.37 766.91,145.11 765.77,151.07 L783,151.07 C783.275085,150.482541 783.502484,149.873913 783.68,149.25 C786.56,134.47 789.54,119.71 792.24,104.9 C793.76,96.62 793.69,96.45 802.24,95.9 C803.442316,95.8300112 804.647684,95.8300112 805.85,95.9 C814.85,96.44 818.67,100.53 817.61,109.46 C816.75,116.7 815.13,123.86 813.8,131.05 C812.59,137.65 811.32,144.26 810,151.21 L810.05,151.21 Z M967.78,98.44 C968.78,93.38 969.6,88.72 970.51,83.88 C960.6,80.88 950.82,80.73 940.97,81.74 C934.67,82.39 928.74,84.24 923.69,88.19 C917.45,93.08 915.17,99.67 916.2,107.36 C917.11,114.16 921.94,117.6 927.84,119.87 C930.17,120.76 932.63,121.35 935.03,122.07 C938.58,123.12 942.18,124.07 945.68,125.24 C947.847334,125.907382 949.271439,127.977302 949.12,130.24 C949.307704,132.610453 947.911224,134.821208 945.69,135.67 C944.192815,136.320058 942.615552,136.767342 941,137 C931.859873,138.328803 922.530511,137.160905 914,133.62 C913.181159,133.354009 912.341592,133.156661 911.49,133.03 C910.49,138.17 909.66,142.94 908.77,147.8 C918.71,151.03 928.49,151.49 938.37,151 C945.45,150.65 952.28,149.3 958.37,145.42 C964.85,141.29 967.25,135.09 966.65,127.7 C966.1,120.95 962.18,116.47 956.08,113.91 C953.08,112.65 949.9,111.78 946.77,110.82 C943.64,109.86 940.16,109.2 937.05,107.94 C932.46,106.08 931.96,100.61 936.05,97.77 C937.438748,96.6993983 939.082987,96.00999 940.82,95.77 C946.024429,95.3200429 951.254221,95.2398416 956.47,95.53 C960.11,95.9 963.73,97.4 967.75,98.45 L967.78,98.44 Z M349.92,83.77 C353.49,106.47 357.02,128.91 360.58,151.5 C367.31,151.5 373.76,151.43 380.21,151.55 C381.841524,151.735395 383.403153,150.834923 384.06,149.33 C395.68,128.456667 407.346667,107.61 419.06,86.79 C419.567804,85.7452394 420.018468,84.67366 420.41,83.58 C414.74,83.58 409.71,83.69 404.7,83.58 C402.850063,83.3243208 401.069392,84.3827617 400.41,86.13 C392.74,101.19 384.93,116.18 377.14,131.18 C376.58,132.27 375.94,133.3 375.02,134.92 C372.73,117.37 370.55,100.62 368.36,83.82 L349.92,83.77 Z M201.42,96.48 C201.17,97.97 201,99.03 200.8,100.08 C199.07,109.41 197.13,118.7 195.66,128.08 C194.04,138.38 198.15,146.18 206.66,149.48 C214.19,152.4 221.89,152.02 229.57,150.04 C230.22,149.87 231.18,149.29 231.28,148.77 C232.16,144.32 232.87,139.84 233.58,135.67 C229.32,136.16 225.37,137.02 221.43,136.99 C215.63,136.94 212.35,133.17 213.28,127.56 C215,117.27 217.14,107.04 219.15,96.56 L237.8,96.56 C238.73,91.86 239.6,87.42 240.56,82.56 L222,82.56 C223.1,76.56 224.12,70.96 225.2,65.07 C219.83,65.07 215.02,65.17 210.2,65.07 C208.09,65.01 207.42,65.77 207.09,67.79 C206.3,72.72 205.21,77.59 204.19,82.74 L193.55,82.74 C192.55,87.44 191.69,91.87 190.72,96.57 L201.42,96.48 Z M722.09,151.1 C728.24,119.6 734.35,88.31 740.53,56.7 C734.61,56.7 729.04,56.6 723.53,56.81 C722.78,56.81 721.61,58.27 721.44,59.2 C720.89,62.2 720.94,65.29 720.38,68.27 C716.26,90.12 712.04,111.94 707.86,133.78 C706.77,139.49 705.68,145.2 704.56,151.1 L722.09,151.1 Z M500.09,57.2 C494.09,88.71 488.17,119.97 482.21,151.36 L499.69,151.36 C505.82,119.96 511.94,88.65 518.08,57.2 L500.09,57.2 Z M710.55,82.92 C697.941686,81.4134825 685.158108,82.5267262 673,86.19 C671.967371,86.6214626 671.184688,87.4960102 670.87,88.57 C668.59,101.22 666.51,113.91 664.26,126.57 C662.82,134.7 661.18,142.79 659.61,150.98 L677.19,150.98 C678.5,144.25 679.83,137.74 681.02,131.2 C682.95,120.59 684.74,109.95 686.76,99.35 C687.156328,98.2621405 688.073312,97.4466253 689.2,97.18 C695.28,97 701.36,97.08 707.66,97.08 C708.59,92.41 709.52,87.85 710.52,82.92 L710.55,82.92 Z M236.93,151.4 L254.54,151.4 C257.91,133.6 261.27,115.85 264.78,97.28 L285,97.28 C285.9,92.74 286.83,88.09 287.75,83.46 C279.66,81.35 257.35,83.18 249.85,86.65 C248.87862,87.3695272 248.240077,88.4518039 248.08,89.65 C247.52,92.75 247.45,95.95 246.87,99.05 C243.64,116.4 240.29,133.75 236.93,151.4 Z M117.12,83.58 L105.48,83.58 C98.54,83.58 98.71,83.58 97.59,90.13 C95.28,103.55 92.8,116.94 90.34,130.33 C89.05,137.33 87.67,144.33 86.34,151.4 L103.93,151.4 C108.29,128.89 112.66,106.46 117.12,83.58 Z M647.65,151.09 C652.04,128.52 656.42,106.09 660.85,83.29 C654.85,83.29 649.3,83.22 643.74,83.37 C642.828951,83.6127828 642.100382,84.2962862 641.8,85.19 C638.96,101.19 636.25,117.19 633.45,133.13 C632.45,139.13 631.21,145.01 630.06,151.13 L647.65,151.09 Z M736.31,151.21 C741.7,151.21 746.5,151.13 751.31,151.21 C753.31,151.21 754.09,150.64 754.48,148.56 C757.41,132.93 760.48,117.33 763.55,101.72 C764.73,95.72 765.9,89.61 767.13,83.25 L753,83.25 C748,83.25 748.06,83.25 747.85,88.05 C747.816965,89.3569898 747.693335,90.6601156 747.48,91.95 C745.286667,103.95 743.07,115.95 740.83,127.95 C739.36,135.58 737.83,143.14 736.31,151.21 L736.31,151.21 Z M654.4,71.49 C661.03,71.49 665.91,66.72 665.880138,60.31 C665.880138,55.19 662.44,52.02 657,52.1 C650.697102,52.0606202 645.534876,57.0980263 645.42,63.4 C645.45,68.47 648.84,71.52 654.4,71.49 Z M113.4,51.81 C106.86,51.81 101.81,56.62 101.78,62.9 C101.78,68.21 104.87,71.19 110.46,71.2 C117.06,71.2 122.12,66.43 122.18,60.15 C122.27,55.05 118.86,51.81 113.44,51.81 L113.4,51.81 Z M760.4,71.49 C767.18,71.49 772.03,66.95 772.09,60.49 C772.09,55.27 768.88,52.09 763.45,52.07 C757.147742,51.8849236 751.885865,56.8380683 751.69,63.14 L751.69,63.14 C751.69,68.4 754.93,71.47 760.47,71.47 L760.4,71.49 Z" id="Shape" fill-opacity="0" fill="#FEFEFE"></path>
            <path d="M1204.77,202 L1143,158.7 C1143.94,155.7 1144.72,152.7 1145.85,149.7 C1151.71,134.57 1157.14,119.24 1163.69,104.41 C1175.36,77.97 1187.69,51.85 1199.79,25.59 C1201.69,21.43 1203.54,17.25 1205.42,13.08 L1206.07,11.08 L1206.23,10.8 L1206.07,11.08 L1205.41,13.08 C1204.63934,13.7522575 1203.94818,14.510527 1203.35,15.34 C1199.94,21.34 1196.64,27.34 1193.27,33.28 C1185.72333,46.6133333 1178.16667,59.97 1170.6,73.35 C1164.28,84.53 1157.98,95.7233333 1151.7,106.93 L1128.33,148.48 L1027.24,125.58 C1014.12,122.58 1001.01,119.58 987.88,116.69 C984.88,116.02 982.36,114.83 982.05,111.45 C981.74,108.07 983.99,106.69 986.66,105.45 L1208.21,2.45 C1209.21,2 1210.21,1.58 1211.54,0.97 C1211.61,2.38 1211.72,3.42 1211.72,4.46 C1211.72,67.74 1211.74,131.02 1211.78,194.3 C1211.78,197.64 1210.95,200.24 1208.04,202.01 L1204.77,202 Z" id="Path" fill="#FEC70B"></path>
            <path d="M-7.10542736e-15,146.91 C1.75,140.32 3.86,133.79 5.19,127.12 C10,103.05 14.56,78.93 19.19,54.84 C19.3689737,54.0851351 19.5893061,53.3406787 19.85,52.61 L39.2,52.61 C34,80 28.7,107.12 23.44,134.32 C29.72,136.48 42.86,134.84 47.53,126.21 C50.2308109,121.117372 52.5699211,115.841008 54.53,110.42 C63.9633333,84.9733333 73.2966667,59.5 82.53,34 C83.34,31.75 84.41,31 86.74,31.11 C92.28,31.29 97.82,31.17 103.81,31.17 C100.64,39.81 97.66,47.97 94.65,56.17 C87,76.87 79.52,97.7 71.52,118.33 C69.0005198,124.8289 65.688837,130.992123 61.66,136.68 C55.41,145.46 45.91,149.22 35.49,150.68 C24.7329949,152.214152 13.7916686,151.875831 3.15,149.68 C2.04790864,149.314672 0.991079339,148.82484 -7.10542736e-15,148.22 L-7.10542736e-15,146.91 Z" id="Path" fill="#0367B3"></path>
            <path d="M615.93,151.22 L596.65,151.22 L601.78,124.32 L592.07,124.32 C584.95,124.32 577.82,124.44 570.7,124.25 C568.17,124.19 567.11,125.09 566.25,127.38 C561.09,141.16 555.72,154.87 550.55,168.65 C549.74,170.83 548.73,171.65 546.34,171.65 C540.88,171.46 535.41,171.59 529.44,171.59 C531.76,165.49 533.92,159.73 536.13,153.98 C545.11,130.693333 554.11,107.4 563.13,84.1 C568.46,70.24 576.47,58.67 591.72,54.92 C599.48,53.01 607.72,52.55 615.72,52.38 C621.33,52.26 626.98,53.74 632.6,54.52 C634.6,54.79 635.31,55.52 634.82,57.85 C631.16,74.7966667 627.606667,91.7666667 624.16,108.76 C621.3,122.81 618.68,137 615.93,151.22 Z M612.45,69.51 C601,66.43 589.55,70.88 584.7,81 C580.63,89.52 577.61,98.54 574.14,107.34 C574.08,107.48 574.28,107.72 574.37,107.93 L604.94,107.93 C607.45,95.13 609.93,82.43 612.45,69.51 L612.45,69.51 Z" id="Shape" fill="#0367B3"></path>
            <path d="M860.84,121.23 C860.14,130.29 866.2,136.36 876.41,137.07 C883.536021,137.708684 890.714307,136.73107 897.41,134.21 C898.324661,133.939516 899.256867,133.732359 900.2,133.59 C899.29,138.16 898.56,142.31 897.58,146.4 C897.232744,147.366091 896.474407,148.128092 895.51,148.48 C883.25,152.21 870.93,152.71 858.9,147.77 C848.84,143.64 843.63,135.77 843.05,124.93 C842.32,111.19 845.81,98.81 856.47,89.51 C868.11,79.36 881.78,78.12 895.89,82.95 C904.42,85.87 908.89,92.95 909.42,101.76 C909.74,107.12 908.65,112.57 908.19,117.99 C907.98,120.48 906.79,121.33 904.19,121.3 C890.95,121.15 877.7,121.23 864.45,121.23 L860.84,121.23 Z M862.25,109.82 L892.13,109.82 C894.05,102.73 892.28,97.26 887.54,94.89 C877.67,89.94 863.15,98.33 862.25,109.82 L862.25,109.82 Z" id="Shape" fill="#0468B4"></path>
            <path d="M137.59,121.44 C136.98,129.99 142.2,135.77 151.28,137.1 C158.89494,138.148277 166.651173,137.271575 173.84,134.55 C174.56,134.29 175.27,134.04 176,133.83 C176.17,133.78 176.4,133.92 176.92,134.06 C176.04,138.38 175.24,142.74 174.21,147.06 C173.828396,147.903475 173.098164,148.538777 172.21,148.8 C159.92,152.49 147.6,152.96 135.57,148.02 C126.86,144.45 121.45,137.81 120.2,128.35 C118.31,114.04 121.62,101.19 132.08,90.79 C142.28,80.64 160.64,77.44 173.66,83.53 C183.1,87.95 186.66,96.17 186.53,106.01 C186.53,110.32 185.36,114.63 184.78,118.94 C184.52,120.94 183.5,121.51 181.49,121.5 C168.13,121.41 154.77,121.5 141.41,121.5 L137.59,121.44 Z M138.84,110 L168.91,110 C171.68,101.57 167.91,94.84 159.91,93.85 C150,92.64 140.51,99.89 138.84,110 Z" id="Shape" fill="#0367B3"></path>
            <path d="M431.56,121.44 C431.2,130.08 436.24,135.71 445.11,137.06 C452.72067,138.150949 460.483371,137.318986 467.69,134.64 L471.08,133.46 C470.08,138.46 469.21,143.03 468.16,147.52 C468.02,148.1 466.9,148.63 466.16,148.86 C454.99,152.22 443.74,152.71 432.57,149.13 C420.57,145.27 413.93,136.29 413.8,123.64 C413.62,106.45 419.52,92.34 435.68,84.29 C445.43,79.43 455.82,79.38 466.03,82.85 C476.24,86.32 481.67,96.38 480.55,108.74 C480.24,112.09 479.35,115.38 478.89,118.74 C478.6,120.92 477.56,121.51 475.41,121.5 C462.05,121.41 448.69,121.5 435.33,121.5 L431.56,121.44 Z M463.34,110 C463.51,108.19 463.78,106.59 463.78,105 C463.78,98.24 459.97,94.24 453.2,93.8 C443.4,93.16 434.79,99.97 432.85,110.02 L463.34,110 Z" id="Shape" fill="#0367B3"></path>
            <path d="M326,110.21 C329.33,101.68 325.52,95.35 316.69,94.44 C309.705959,93.7039188 302.645404,94.4990418 296,96.77 C294.88,97.15 293.73,97.45 291.86,98 C292.86,93 293.7,88.6 294.7,84.21 C294.81,83.72 295.8,83.27 296.45,83.08 C306.66071,79.9802461 317.495599,79.5498803 327.92,81.83 C339.92,84.58 345.74,92.77 344.15,104.92 C342.86,114.86 340.75,124.69 339.15,134.59 C338.62,137.81 338.61,141.12 338.03,144.33 C337.788936,145.597326 337.002646,146.694475 335.88,147.33 C323.05,151.15 310.03,153.06 296.71,150.23 C286.96,148.16 281.82,143.11 280.76,134.83 C279.46,124.68 283.28,116.97 292.18,112.67 C301.56,108.14 311.49,107.41 321.66,109.24 C323.05,109.48 324.51,109.88 326,110.21 Z M323.77,121.63 C316.49,119.3 309.23,119.02 302.13,122.24 C298.25,124.01 296.73,127.45 297.23,132.04 C297.58,135.25 299.68,137.37 303.79,138.39 C309.365733,139.62063 315.165718,139.379395 320.62,137.69 C321.355826,137.4126 321.913776,136.798855 322.12,136.04 C322.69,131.43 323.12,126.79 323.72,121.63 L323.77,121.63 Z" id="Shape" fill="#0368B3"></path>
            <path d="M810,151.21 C811.32,144.21 812.59,137.65 813.81,131.03 C815.14,123.84 816.81,116.68 817.62,109.44 C818.68,100.51 814.87,96.44 805.86,95.88 C804.657684,95.8100112 803.452316,95.8100112 802.25,95.88 C793.72,96.44 793.79,96.61 792.25,104.88 C789.55,119.69 786.57,134.45 783.69,149.23 C783.512484,149.853913 783.285085,150.462541 783.01,151.05 L765.75,151.05 C766.89,145.05 767.99,139.35 769.08,133.6 C771.486667,120.933333 773.886667,108.29 776.28,95.67 C776.433117,94.9198289 776.546608,94.1621122 776.62,93.4 C777.25,86.32 777.23,86.26 784.24,84.64 C794.85,82.19 805.52,80.64 816.44,82.5 C831,85 837.77,93.64 835.55,108.17 C833.45,121.96 830.55,135.63 827.87,149.34 C827.541163,150.227256 826.79065,150.89146 825.87,151.11 C820.7,151.28 815.57,151.21 810,151.21 Z" id="Path" fill="#0468B4"></path>
            <path d="M967.73,98.44 C963.73,97.44 960.09,95.89 956.37,95.59 C951.154221,95.2998416 945.924429,95.3800429 940.72,95.83 C938.982987,96.06999 937.338748,96.7593983 935.95,97.83 C931.86,100.67 932.36,106.14 936.95,108 C940.06,109.26 943.44,109.88 946.67,110.88 C949.9,111.88 953,112.71 956,114 C962.1,116.56 966,121 966.57,127.79 C967.17,135.18 964.77,141.38 958.29,145.51 C952.22,149.39 945.39,150.74 938.29,151.09 C928.41,151.58 918.63,151.09 908.69,147.89 C909.58,143.03 910.46,138.26 911.41,133.12 C912.261592,133.246661 913.101159,133.444009 913.92,133.71 C922.450511,137.250905 931.779873,138.418803 940.92,137.09 C942.541897,136.862281 944.125982,136.418333 945.63,135.77 C947.851224,134.921208 949.247704,132.710453 949.06,130.34 C949.211439,128.077302 947.787334,126.007382 945.62,125.34 C942.12,124.15 938.52,123.22 934.97,122.17 C932.57,121.45 930.11,120.86 927.78,119.97 C921.88,117.7 917.05,114.26 916.14,107.46 C915.14,99.77 917.39,93.18 923.63,88.29 C928.63,84.29 934.63,82.49 940.91,81.84 C950.76,80.84 960.54,80.95 970.45,83.98 C969.55,88.72 968.68,93.38 967.73,98.44 Z" id="Path" fill="#0368B3"></path>
            <path d="M349.92,83.77 L368.37,83.77 C370.56,100.57 372.74,117.32 375.03,134.87 C375.95,133.25 376.59,132.22 377.15,131.13 C384.94,116.13 392.75,101.13 400.42,86.13 C401.079392,84.3827617 402.860063,83.3243208 404.71,83.58 C409.71,83.74 414.71,83.58 420.42,83.58 C420.028468,84.67366 419.577804,85.7452394 419.07,86.79 C407.396667,107.63 395.73,128.476667 384.07,149.33 C383.413153,150.834923 381.851524,151.735395 380.22,151.55 C373.77,151.43 367.32,151.5 360.59,151.5 C357,128.91 353.49,106.47 349.92,83.77 Z" id="Path" fill="#0468B3"></path>
            <path d="M201.42,96.48 L190.72,96.48 C191.72,91.78 192.59,87.35 193.55,82.65 L204.17,82.65 C205.17,77.5 206.28,72.65 207.07,67.65 C207.4,65.65 208.07,64.87 210.18,64.93 C214.98,65.08 219.79,64.93 225.18,64.93 C224.1,70.82 223.08,76.42 221.98,82.42 L240.58,82.42 C239.58,87.27 238.75,91.71 237.82,96.42 L219.15,96.42 C217.15,106.93 215,117.16 213.28,127.42 C212.35,133.03 215.63,136.8 221.43,136.85 C225.37,136.85 229.32,136.02 233.58,135.53 C232.87,139.7 232.16,144.18 231.28,148.63 C231.18,149.15 230.22,149.73 229.57,149.9 C221.89,151.9 214.19,152.26 206.66,149.34 C198.15,146.04 194.04,138.24 195.66,127.94 C197.13,118.58 199.07,109.29 200.8,99.94 C201,99 201.17,98 201.42,96.48 Z" id="Path" fill="#0367B3"></path>
            <path d="M722.09,151.1 L704.51,151.1 C705.63,145.2 706.72,139.49 707.81,133.78 C711.99,111.94 716.21,90.12 720.33,68.27 C720.89,65.27 720.84,62.19 721.39,59.2 C721.56,58.27 722.73,56.83 723.48,56.81 C729.04,56.6 734.61,56.7 740.48,56.7 C734.35,88.31 728.24,119.6 722.09,151.1 Z" id="Path" fill="#0568B4"></path>
            <path d="M500.06,57.2 L518.06,57.2 C511.92,88.65 505.8,119.96 499.67,151.36 L482.18,151.36 C488.14,120 494.08,88.71 500.06,57.2 Z" id="Path" fill="#0367B3"></path>
            <path d="M710.52,82.92 C709.52,87.85 708.59,92.41 707.64,97.08 C701.34,97.08 695.26,97 689.18,97.18 C688.053312,97.4466253 687.136328,98.2621405 686.74,99.35 C684.74,109.95 682.93,120.59 681,131.2 C679.81,137.74 678.48,144.25 677.17,150.98 L659.59,150.98 C661.16,142.79 662.8,134.7 664.24,126.57 C666.49,113.91 668.57,101.22 670.85,88.57 C671.169006,87.4918662 671.959721,86.616563 673,86.19 C685.149265,82.5342593 697.921491,81.4211148 710.52,82.92 Z" id="Path" fill="#0468B4"></path>
            <path d="M236.93,151.4 C240.29,133.75 243.64,116.4 246.88,99.04 C247.46,95.94 247.53,92.74 248.09,89.64 C248.250077,88.4418039 248.88862,87.3595272 249.86,86.64 C257.36,83.17 279.67,81.34 287.76,83.45 C286.84,88.08 285.91,92.73 285.01,97.27 L264.78,97.27 C261.27,115.84 257.91,133.59 254.54,151.39 L236.93,151.4 Z" id="Path" fill="#0368B3"></path>
            <path d="M117.12,83.58 C112.66,106.46 108.29,128.89 103.91,151.4 L86.32,151.4 C87.67,144.3 89.05,137.32 90.32,130.33 C92.78,116.94 95.26,103.55 97.57,90.13 C98.69,83.61 98.57,83.58 105.46,83.58 L117.12,83.58 Z" id="Path" fill="#0468B3"></path>
            <path d="M647.65,151.09 L630.06,151.09 C631.21,145.01 632.41,139.09 633.45,133.09 C636.25,117.09 638.96,101.09 641.8,85.15 C642.100382,84.2562862 642.828951,83.5727828 643.74,83.33 C649.3,83.18 654.87,83.25 660.85,83.25 C656.42,106 652,128.52 647.65,151.09 Z" id="Path" fill="#0468B4"></path>
            <path d="M736.31,151.21 C737.87,143.14 739.36,135.58 740.78,128 C743.033333,116 745.25,104 747.43,92 C747.643335,90.7101156 747.766965,89.4069898 747.8,88.1 C748.01,83.3 747.99,83.3 752.95,83.3 L767.12,83.3 C765.89,89.66 764.72,95.72 763.54,101.77 C760.54,117.38 757.4,132.98 754.47,148.61 C754.08,150.69 753.33,151.31 751.3,151.26 C746.5,151.13 741.7,151.21 736.31,151.21 Z" id="Path" fill="#0468B3"></path>
            <path d="M1128.34,148.51 L1151.71,107 L1170.61,73.42 L1193.28,33.35 C1196.65,27.35 1199.95,21.35 1203.36,15.41 C1203.95818,14.580527 1204.64934,13.8222575 1205.42,13.15 L1205.42,13.15 C1203.54,17.32 1201.69,21.5 1199.79,25.66 C1187.72,51.92 1175.36,78.04 1163.69,104.48 C1157.14,119.31 1151.69,134.64 1145.85,149.77 C1144.72,152.69 1143.94,155.77 1143,158.77 L1128.34,148.51 Z" id="Path" fill="#FEE600"></path>
            <path d="M654.4,71.49 C648.84,71.49 645.45,68.49 645.4,63.4 C645.514941,57.0901789 650.689333,52.0496067 657,52.1 C662.44,52.02 665.87,55.19 665.880137,60.31 C665.91,66.72 661,71.46 654.4,71.49 Z" id="Path" fill="#0569B4"></path>
            <path d="M113.44,51.8099845 C118.86,51.8099845 122.27,55.05 122.22,60.15 C122.16,66.43 117.1,71.21 110.5,71.2000157 C104.91,71.2000157 101.79,68.2 101.82,62.9 C101.85,56.62 106.9,51.8 113.44,51.8099845 Z" id="Path" fill="#0568B4"></path>
            <path d="M760.47,71.4900166 C754.93,71.4900166 751.71,68.42 751.76,63.2 C751.945142,56.8982021 757.197877,51.9362923 763.5,52.11 L763.5,52.11 C768.93,52.11 772.19,55.31 772.14,60.53 C772.1,67 767.25,71.5 760.47,71.4900166 Z" id="Path" fill="#0468B4"></path>
        </g>
    </g>
</svg>